<mxfile host="65bd71144e">
    <diagram id="rrSneLPLhEWajKTBF8vL" name="Página-1">
        <mxGraphModel dx="932" dy="612" grid="1" gridSize="10" guides="1" tooltips="1" connect="1" arrows="1" fold="1" page="1" pageScale="1" pageWidth="827" pageHeight="1169" math="0" shadow="0">
            <root>
                <mxCell id="0"/>
                <mxCell id="1" parent="0"/>
                <mxCell id="2" value="Usuário" style="swimlane;fontStyle=1;align=center;verticalAlign=middle;childLayout=stackLayout;horizontal=1;startSize=29;horizontalStack=0;resizeParent=1;resizeParentMax=0;resizeLast=0;collapsible=0;marginBottom=0;html=1;gradientColor=none;swimlaneFillColor=none;" vertex="1" parent="1">
                    <mxGeometry x="130" y="130" width="140" height="110" as="geometry"/>
                </mxCell>
                <mxCell id="4" value="&lt;div style=&quot;text-align: justify&quot;&gt;&lt;span&gt;+ String: Nome&lt;/span&gt;&lt;br&gt;&lt;/div&gt;&lt;div style=&quot;text-align: justify&quot;&gt;&lt;span&gt;+ bool?:&amp;nbsp; Sexo&lt;/span&gt;&lt;/div&gt;&lt;div style=&quot;text-align: justify&quot;&gt;&lt;span&gt;- List&amp;lt;task&amp;gt; todo&lt;/span&gt;&lt;/div&gt;&lt;div style=&quot;text-align: justify&quot;&gt;- List&amp;lt;task&amp;gt; finished&lt;/div&gt;" style="text;html=1;strokeColor=none;fillColor=none;align=left;verticalAlign=middle;spacingLeft=4;spacingRight=4;overflow=hidden;rotatable=0;points=[[0,0.5],[1,0.5]];portConstraint=eastwest;" vertex="1" parent="2">
                    <mxGeometry y="29" width="140" height="81" as="geometry"/>
                </mxCell>
                <mxCell id="5" value="Task" style="swimlane;fontStyle=1;align=center;verticalAlign=middle;childLayout=stackLayout;horizontal=1;startSize=29;horizontalStack=0;resizeParent=1;resizeParentMax=0;resizeLast=0;collapsible=0;marginBottom=0;html=1;gradientColor=none;swimlaneFillColor=none;" vertex="1" parent="1">
                    <mxGeometry x="400" y="130" width="140" height="110" as="geometry"/>
                </mxCell>
                <mxCell id="6" value="&lt;div style=&quot;text-align: justify&quot;&gt;-String: date_initi&lt;/div&gt;&lt;div style=&quot;text-align: justify&quot;&gt;-String: date_final&lt;/div&gt;&lt;div style=&quot;text-align: justify&quot;&gt;-String: description&lt;/div&gt;&lt;div style=&quot;text-align: justify&quot;&gt;-list&amp;lt;Tag&amp;gt;: tags&lt;/div&gt;&lt;div style=&quot;text-align: justify&quot;&gt;-color: color&lt;/div&gt;&lt;div style=&quot;text-align: justify&quot;&gt;&lt;br&gt;&lt;/div&gt;" style="text;html=1;strokeColor=none;fillColor=none;align=left;verticalAlign=middle;spacingLeft=4;spacingRight=4;overflow=hidden;rotatable=0;points=[[0,0.5],[1,0.5]];portConstraint=eastwest;" vertex="1" parent="5">
                    <mxGeometry y="29" width="140" height="81" as="geometry"/>
                </mxCell>
            </root>
        </mxGraphModel>
    </diagram>
</mxfile>